<svg id="visual" viewBox="0 0 900 600" width="900" height="600" xmlns="http://www.w3.org/2000/svg" xmlns:xlink="http://www.w3.org/1999/xlink" version="1.1"><rect x="0" y="0" width="900" height="600" fill="#00b300"></rect><path d="M0 160L16.7 153.2C33.3 146.3 66.7 132.7 100 122.3C133.3 112 166.7 105 200 108.8C233.3 112.7 266.7 127.3 300 137.3C333.3 147.3 366.7 152.7 400 153C433.3 153.3 466.7 148.7 500 147.3C533.3 146 566.7 148 600 144.7C633.3 141.3 666.7 132.7 700 133.5C733.3 134.3 766.7 144.7 800 144.2C833.3 143.7 866.7 132.3 883.3 126.7L900 121L900 0L883.3 0C866.7 0 833.3 0 800 0C766.7 0 733.3 0 700 0C666.7 0 633.3 0 600 0C566.7 0 533.3 0 500 0C466.7 0 433.3 0 400 0C366.7 0 333.3 0 300 0C266.7 0 233.3 0 200 0C166.7 0 133.3 0 100 0C66.7 0 33.3 0 16.7 0L0 0Z" fill="#cf4500" stroke-linecap="round" stroke-linejoin="miter"></path></svg>