<svg id="visual" viewBox="0 0 900 600" width="900" height="600" xmlns="http://www.w3.org/2000/svg" xmlns:xlink="http://www.w3.org/1999/xlink" version="1.1"><rect x="0" y="0" width="900" height="600" fill="#005ae0"></rect><path d="M0 103L8.8 100.7C17.7 98.3 35.3 93.7 53 89.5C70.7 85.3 88.3 81.7 106 82.3C123.7 83 141.3 88 159 88.2C176.7 88.3 194.3 83.7 212 82.3C229.7 81 247.3 83 265 84.8C282.7 86.7 300.3 88.3 318 89.3C335.7 90.3 353.3 90.7 371 92.2C388.7 93.7 406.3 96.3 423.8 97.2C441.3 98 458.7 97 476.2 96.3C493.7 95.7 511.3 95.3 529 92.7C546.7 90 564.3 85 582 82.3C599.7 79.7 617.3 79.3 635 80.3C652.7 81.3 670.3 83.7 688 86.3C705.7 89 723.3 92 741 92.8C758.7 93.7 776.3 92.3 794 89.2C811.7 86 829.3 81 847 81.8C864.7 82.7 882.3 89.3 891.2 92.7L900 96L900 0L891.2 0C882.3 0 864.7 0 847 0C829.3 0 811.7 0 794 0C776.3 0 758.7 0 741 0C723.3 0 705.7 0 688 0C670.3 0 652.7 0 635 0C617.3 0 599.7 0 582 0C564.3 0 546.7 0 529 0C511.3 0 493.7 0 476.2 0C458.7 0 441.3 0 423.8 0C406.3 0 388.7 0 371 0C353.3 0 335.7 0 318 0C300.3 0 282.7 0 265 0C247.3 0 229.7 0 212 0C194.3 0 176.7 0 159 0C141.3 0 123.7 0 106 0C88.3 0 70.7 0 53 0C35.3 0 17.7 0 8.8 0L0 0Z" fill="#222" stroke-linecap="round" stroke-linejoin="miter"></path></svg>