<svg id="visual" viewBox="0 0 900 600" width="900" height="600" xmlns="http://www.w3.org/2000/svg" xmlns:xlink="http://www.w3.org/1999/xlink" version="1.1"><rect x="0" y="0" width="900" height="600" fill="#cf4500"></rect><path d="M0 133L8.3 124C16.7 115 33.3 97 50 91.2C66.7 85.3 83.3 91.7 100 102.5C116.7 113.3 133.3 128.7 150 139C166.7 149.3 183.3 154.7 200 157.7C216.7 160.7 233.3 161.3 250 155.3C266.7 149.3 283.3 136.7 300 133.2C316.7 129.7 333.3 135.3 350 131.5C366.7 127.7 383.3 114.3 400 107.8C416.7 101.3 433.3 101.7 450 102.8C466.7 104 483.3 106 500 106.7C516.7 107.3 533.3 106.7 550 109.5C566.7 112.3 583.3 118.7 600 118.7C616.7 118.7 633.3 112.3 650 107.8C666.7 103.3 683.3 100.7 700 97.7C716.7 94.7 733.3 91.3 750 99.8C766.7 108.3 783.3 128.7 800 139.3C816.7 150 833.3 151 850 139.3C866.7 127.7 883.3 103.3 891.7 91.2L900 79L900 0L891.7 0C883.3 0 866.7 0 850 0C833.3 0 816.7 0 800 0C783.3 0 766.7 0 750 0C733.3 0 716.7 0 700 0C683.3 0 666.7 0 650 0C633.3 0 616.7 0 600 0C583.3 0 566.7 0 550 0C533.3 0 516.7 0 500 0C483.3 0 466.7 0 450 0C433.3 0 416.7 0 400 0C383.3 0 366.7 0 350 0C333.3 0 316.7 0 300 0C283.3 0 266.7 0 250 0C233.3 0 216.7 0 200 0C183.3 0 166.7 0 150 0C133.3 0 116.7 0 100 0C83.3 0 66.7 0 50 0C33.3 0 16.7 0 8.3 0L0 0Z" fill="#005ae0" stroke-linecap="round" stroke-linejoin="miter"></path></svg>