<svg id="visual" viewBox="0 0 900 600" width="900" height="600" xmlns="http://www.w3.org/2000/svg" xmlns:xlink="http://www.w3.org/1999/xlink" version="1.1"><rect x="0" y="0" width="900" height="600" fill="#222"></rect><path d="M0 114L13.7 117.7C27.3 121.3 54.7 128.7 82 129.2C109.3 129.7 136.7 123.3 163.8 123.7C191 124 218 131 245.2 130.2C272.3 129.3 299.7 120.7 327 117.5C354.3 114.3 381.7 116.7 409 115.5C436.3 114.3 463.7 109.7 491 111.5C518.3 113.3 545.7 121.7 573 126.8C600.3 132 627.7 134 654.8 134C682 134 709 132 736.2 132.5C763.3 133 790.7 136 818 136C845.3 136 872.7 133 886.3 131.5L900 130L900 0L886.3 0C872.7 0 845.3 0 818 0C790.7 0 763.3 0 736.2 0C709 0 682 0 654.8 0C627.7 0 600.3 0 573 0C545.7 0 518.3 0 491 0C463.7 0 436.3 0 409 0C381.7 0 354.3 0 327 0C299.7 0 272.3 0 245.2 0C218 0 191 0 163.8 0C136.7 0 109.3 0 82 0C54.7 0 27.3 0 13.7 0L0 0Z" fill="#7e00b3" stroke-linecap="round" stroke-linejoin="miter"></path></svg>