<?xml version="1.0" standalone="no"?>
<!DOCTYPE svg PUBLIC "-//W3C//DTD SVG 20010904//EN"
 "http://www.w3.org/TR/2001/REC-SVG-20010904/DTD/svg10.dtd">
<svg version="1.0" xmlns="http://www.w3.org/2000/svg"
 width="500.000000pt" height="500.000000pt" viewBox="0 0 500.000000 500.000000"
 preserveAspectRatio="xMidYMid meet">

<g transform="translate(0.000000,500.000000) scale(0.100000,-0.100000)"
fill="#000000" stroke="none">
<path d="M0 2500 l0 -2500 2500 0 2500 0 0 2500 0 2500 -2500 0 -2500 0 0
-2500z m1968 1094 c205 -42 343 -144 418 -309 32 -70 43 -199 25 -288 -31
-147 -155 -306 -296 -378 -108 -56 -182 -75 -419 -109 -120 -17 -239 -39 -264
-48 -56 -21 -88 -64 -98 -130 -13 -91 -66 -258 -109 -348 -80 -165 -198 -289
-338 -355 -66 -30 -177 -59 -235 -59 -36 0 -96 22 -107 39 -4 7 25 65 64 130
39 66 87 154 107 196 57 122 137 377 214 675 39 151 89 320 110 377 46 121
115 242 183 318 l49 55 -69 0 c-78 0 -187 21 -233 45 -23 12 -30 22 -28 38 3
21 7 22 88 19 101 -4 174 10 366 71 76 25 164 50 194 56 30 6 64 13 75 15 53
10 233 4 303 -10z m2416 10 c46 -18 -10 -79 -134 -147 -87 -48 -185 -79 -365
-117 -256 -54 -338 -84 -470 -173 -74 -51 -182 -159 -234 -235 -131 -193 -210
-457 -198 -656 12 -192 103 -279 319 -306 178 -22 351 28 437 125 59 68 78
115 117 298 13 64 34 138 45 163 11 26 18 49 15 51 -2 3 -66 -1 -142 -7 -129
-11 -158 -17 -240 -51 -17 -7 -39 -9 -49 -5 -15 6 -17 15 -11 69 11 111 89
200 204 234 75 22 215 21 322 -1 56 -12 101 -16 135 -11 146 19 135 20 135
-11 -1 -36 -50 -101 -113 -149 -83 -63 -88 -82 -85 -322 3 -205 3 -209 -25
-288 -64 -185 -217 -338 -417 -419 -125 -51 -184 -61 -365 -61 -148 0 -180 3
-250 23 -228 66 -378 199 -463 412 -72 180 -68 423 10 669 113 356 341 627
653 777 197 95 222 98 645 99 353 0 366 1 410 22 46 22 86 28 114 17z"/>
<path d="M1481 3347 c-55 -90 -75 -192 -96 -497 -19 -270 -19 -246 3 -228 34
31 105 59 244 99 173 50 233 76 286 124 72 65 95 116 100 222 4 85 2 98 -22
145 -54 109 -163 158 -367 166 l-126 4 -22 -35z"/>
</g>
</svg>
